-
http:// www. Speed. Cd       
http:// www. Speed. Cd       the fast  and The Hottest Private Tracker on the net

Please Seed back to make the speed Faster!!!

and don't forget to visit      ...... www. Speed. Cd..........
-  The Resident 2011 DVDRip Xvid AC3-Freebee



General
Complete name : D:\The Resident 2011 DVDRip Xvid AC3-Freebee\The Resident 2011 DVDRip Xvid AC3-Freebee.avi
Format : AVI
Format/Info : Audio Video Interleave
File size : 1.22 GiB
Duration : 1h 31mn
Overall bit rate : 1 917 Kbps

Video
ID : 0
Format : MPEG-4 Visual
Format profile : Advanced Simple@L5
Format settings, BVOP : 2
Format settings, QPel : Yes
Format settings, GMC : No warppoints
Format settings, Matrix : Custom
Codec ID : XVID
Codec ID/Hint : XviD
Duration : 1h 31mn
Bit rate : 1 590 Kbps
Width : 720 pixels
Height : 304 pixels
Display aspect ratio : 2.35:1
Frame rate : 23.976 fps
Color space : YUV
Chroma subsampling : 4:2:0
Bit depth : 8 bits
Scan type : Progressive
Compression mode : Lossy
Bits/(Pixel*Frame) : 0.303
Stream size : 1.01 GiB (83%)
Writing library : XviD 63

Audio
ID : 1
Format : AC-3
Format/Info : Audio Coding 3
Mode extension : CM (complete main)
Codec ID : 2000
Duration : 1h 31mn
Bit rate mode : Constant
Bit rate : 320 Kbps
Channel(s) : 6 channels
Channel positions : Front: L C R, Side: L R, LFE
Sampling rate : 48.0 KHz
Bit depth : 16 bits
Compression mode : Lossy
Stream size : 208 MiB (17%)
Alignment : Aligned on interleaves
Interleave, duration : 64 ms (1.53 video frames)
Interleave, preload duration : 512 ms
Title : VTS_01_1 T80 3_2ch 320Kbps DELAY 500ms english

Actors: Hilary Swank, Jeffrey Dean Morgan, Christopher Lee, Lee Pace
Directors: Antti Jokinen
Language: English
Subtitles: English, Spanish
Rated: R (Restricted)
Studio: IMAGE ENTERTAINMENT
DVD Release Date: March 29, 2011
Run Time: 91 minutes

Sample Included: Yes
Encoder: Freebee269

Link: http://www.imdb.com/title/tt1334102/

Plot: Juliet (Academy Award-winner Hilary Swank, Million Dollar Baby), a beautiful doctor, has found the perfect New York apartment to start a new life after separating from her husband. It's got spacious rooms, a spectacular view, and a handy, handsome landlord. But there are secrets behind every wall and terror in every room as Juliet gets the unnerving feeling that she is not alone. She is being watched. She is being stalked. And no one is safe when she discovers the relentless horror on her doorstep. But how do you stop an evil that you can't see...until it's too late? Jeffrey Dean Morgan (Grey's Anatomy) and screen legend Christopher Lee (The Lord of the Rings) costar in this pulse-pounding shocker from famed horror studio Hammer Films (Let Me In). 

Cast:

    Hilary Swank as Dr. Juliet Devereau
    Jeffrey Dean Morgan as Max
    Christopher Lee as August
    Lee Pace as Jack
    Aunjanue Ellis as Sydney
    Deborah Martinez as Mrs. Portes
    Mark Morocco as ER Surgeon


[color=blue][b]Screenshots[/b][/color]

[imgw]http://bitpic.bitboxes.co.uk/images/5691aebe55e.png[/imgw]

[imgw]http://bitpic.bitboxes.co.uk/images/5939ec4474f.png[/imgw]

[imgw]http://bitpic.bitboxes.co.uk/images/2334714ac2e.png[/imgw]

[imgw]http://bitpic.bitboxes.co.uk/images/27423319bf7.png[/imgw]

[imgw]http://bitpic.bitboxes.co.uk/images/5990529777c.png[/imgw]

[imgw]http://bitpic.bitboxes.co.uk/images/362cf9650c8.png[/imgw]

[color=Darkblue][b]eNJOY[/b][/color]